<svg width="19" height="19" viewBox="0 0 19 19" fill="none" xmlns="http://www.w3.org/2000/svg">
<path d="M4.02405 7.98692C5.46405 10.8169 7.78405 13.1269 10.6141 14.5769L12.8141 12.3769C13.0841 12.1069 13.4841 12.0169 13.8341 12.1369C14.9541 12.5069 16.1641 12.7069 17.4041 12.7069C17.9541 12.7069 18.4041 13.1569 18.4041 13.7069V17.1969C18.4041 17.7469 17.9541 18.1969 17.4041 18.1969C8.01405 18.1969 0.404053 10.5869 0.404053 1.19692C0.404053 0.646918 0.854053 0.196918 1.40405 0.196918H4.90405C5.45405 0.196918 5.90405 0.646918 5.90405 1.19692C5.90405 2.44692 6.10405 3.64692 6.47405 4.76692C6.58405 5.11692 6.50405 5.50692 6.22405 5.78692L4.02405 7.98692Z" fill="white"/>
</svg>
